# Blender v2.75 (sub 0) OBJ File: ''
# www.blender.org
o Icosphere
v 0.458399 -0.458467 0.256693
v 1.182006 0.094313 0.782418
v 0.182011 0.094313 1.107342
v -0.436027 0.094317 0.256693
v 0.182011 0.094313 -0.593957
v 1.182006 0.094313 -0.269033
v 0.734787 0.988753 1.107342
v -0.265208 0.988752 0.782418
v -0.265208 0.988752 -0.269033
v 0.734787 0.988753 -0.593957
v 1.352825 0.988749 0.256693
v 0.458399 1.541533 0.256693
v 0.295943 -0.309121 0.756688
v 0.883722 -0.309121 0.565704
v 0.721268 0.015795 1.065704
v 1.309047 0.015797 0.256693
v 0.883722 -0.309121 -0.052319
v -0.067331 -0.309119 0.256693
v -0.229790 0.015797 0.756690
v 0.295943 -0.309121 -0.243303
v -0.229790 0.015797 -0.243304
v 0.721268 0.015795 -0.552319
v 1.409457 0.541533 0.565705
v 1.409457 0.541533 -0.052320
v 0.458399 0.541533 1.256693
v 1.046185 0.541533 1.065709
v -0.492659 0.541533 0.565705
v -0.129387 0.541533 1.065709
v -0.129387 0.541533 -0.552324
v -0.492659 0.541533 -0.052320
v 1.046185 0.541533 -0.552324
v 0.458399 0.541533 -0.743307
v 1.146588 1.067269 0.756690
v 0.195530 1.067271 1.065704
v -0.392249 1.067269 0.256693
v 0.195530 1.067271 -0.552319
v 1.146588 1.067269 -0.243304
v 0.620855 1.392187 0.756688
v 0.984129 1.392185 0.256693
v 0.033076 1.392187 0.565704
v 0.033076 1.392187 -0.052319
v 0.620855 1.392187 -0.243303
vt 0.000000 0.000000
vt 1.000000 0.000000
vt 1.000000 1.000000
vn 0.102400 -0.943500 0.315100
vn 0.700200 -0.661700 0.268000
vn -0.268000 -0.943500 0.194700
vn -0.268000 -0.943500 -0.194700
vn 0.102400 -0.943500 -0.315100
vn 0.905000 -0.330400 0.268000
vn 0.024700 -0.330400 0.943500
vn -0.889700 -0.330400 0.315100
vn -0.574600 -0.330400 -0.748800
vn 0.534600 -0.330400 -0.777900
vn 0.802600 -0.125600 0.583100
vn -0.306600 -0.125600 0.943500
vn -0.992100 -0.125600 0.000000
vn -0.306600 -0.125600 -0.943500
vn 0.802600 -0.125600 -0.583100
vn 0.408900 0.661700 0.628400
vn -0.471300 0.661700 0.583100
vn -0.700200 0.661700 -0.268000
vn 0.038500 0.661700 -0.748800
vn 0.724000 0.661700 -0.194700
vn 0.268000 0.943500 -0.194700
vn 0.491100 0.794700 -0.356800
vn 0.408900 0.661700 -0.628400
vn -0.102400 0.943500 -0.315100
vn -0.187600 0.794700 -0.577300
vn -0.471300 0.661700 -0.583100
vn -0.331300 0.943500 0.000000
vn -0.607100 0.794700 0.000000
vn -0.700200 0.661700 0.268000
vn -0.102400 0.943500 0.315100
vn -0.187600 0.794700 0.577300
vn 0.038500 0.661700 0.748800
vn 0.268000 0.943500 0.194700
vn 0.491100 0.794700 0.356800
vn 0.724000 0.661700 0.194700
vn 0.889700 0.330400 -0.315100
vn 0.794700 0.187600 -0.577300
vn 0.574600 0.330400 -0.748800
vn -0.024700 0.330400 -0.943500
vn -0.303500 0.187600 -0.934200
vn -0.534600 0.330400 -0.777900
vn -0.905000 0.330400 -0.268000
vn -0.982200 0.187600 0.000000
vn -0.905000 0.330400 0.268000
vn -0.534600 0.330400 0.777900
vn -0.303500 0.187600 0.934200
vn -0.024700 0.330400 0.943500
vn 0.574600 0.330400 0.748800
vn 0.794700 0.187600 0.577300
vn 0.889700 0.330400 0.315100
vn 0.306600 0.125600 -0.943500
vn 0.303500 -0.187600 -0.934200
vn 0.024700 -0.330400 -0.943500
vn -0.802600 0.125600 -0.583100
vn -0.794700 -0.187600 -0.577300
vn -0.889700 -0.330400 -0.315100
vn -0.802600 0.125600 0.583100
vn -0.794700 -0.187600 0.577300
vn -0.574600 -0.330400 0.748800
vn 0.306600 0.125600 0.943500
vn 0.303500 -0.187600 0.934200
vn 0.534600 -0.330400 0.777900
vn 0.992100 0.125600 0.000000
vn 0.982200 -0.187600 0.000000
vn 0.905000 -0.330400 -0.268000
vn 0.471300 -0.661700 -0.583100
vn 0.187600 -0.794700 -0.577300
vn -0.038500 -0.661700 -0.748800
vn -0.408900 -0.661700 -0.628400
vn -0.491100 -0.794700 -0.356800
vn -0.724000 -0.661700 -0.194700
vn -0.724000 -0.661700 0.194700
vn -0.491100 -0.794700 0.356800
vn -0.408900 -0.661700 0.628400
vn 0.700200 -0.661700 -0.268000
vn 0.607100 -0.794700 0.000000
vn 0.331300 -0.943500 0.000000
vn -0.038500 -0.661700 0.748800
vn 0.187600 -0.794700 0.577300
vn 0.471300 -0.661700 0.583100
s off
f 1/1/1 14/2/1 13/3/1
f 2/1/2 14/2/2 16/3/2
f 1/1/3 13/2/3 18/3/3
f 1/1/4 18/2/4 20/3/4
f 1/1/5 20/2/5 17/3/5
f 2/1/6 16/2/6 23/3/6
f 3/1/7 15/2/7 25/3/7
f 4/1/8 19/2/8 27/3/8
f 5/1/9 21/2/9 29/3/9
f 6/1/10 22/2/10 31/3/10
f 2/1/11 23/2/11 26/3/11
f 3/1/12 25/2/12 28/3/12
f 4/1/13 27/2/13 30/3/13
f 5/1/14 29/2/14 32/3/14
f 6/1/15 31/2/15 24/3/15
f 7/1/16 33/2/16 38/3/16
f 8/1/17 34/2/17 40/3/17
f 9/1/18 35/2/18 41/3/18
f 10/1/19 36/2/19 42/3/19
f 11/1/20 37/2/20 39/3/20
f 39/1/21 42/2/21 12/3/21
f 39/1/22 37/2/22 42/3/22
f 37/1/23 10/2/23 42/3/23
f 42/1/24 41/2/24 12/3/24
f 42/1/25 36/2/25 41/3/25
f 36/1/26 9/2/26 41/3/26
f 41/1/27 40/2/27 12/3/27
f 41/1/28 35/2/28 40/3/28
f 35/1/29 8/2/29 40/3/29
f 40/1/30 38/2/30 12/3/30
f 40/1/31 34/2/31 38/3/31
f 34/1/32 7/2/32 38/3/32
f 38/1/33 39/2/33 12/3/33
f 38/1/34 33/2/34 39/3/34
f 33/1/35 11/2/35 39/3/35
f 24/1/36 37/2/36 11/3/36
f 24/1/37 31/2/37 37/3/37
f 31/1/38 10/2/38 37/3/38
f 32/1/39 36/2/39 10/3/39
f 32/1/40 29/2/40 36/3/40
f 29/1/41 9/2/41 36/3/41
f 30/1/42 35/2/42 9/3/42
f 30/1/43 27/2/43 35/3/43
f 27/1/44 8/2/44 35/3/44
f 28/1/45 34/2/45 8/3/45
f 28/1/46 25/2/46 34/3/46
f 25/1/47 7/2/47 34/3/47
f 26/1/48 33/2/48 7/3/48
f 26/1/49 23/2/49 33/3/49
f 23/1/50 11/2/50 33/3/50
f 31/1/51 32/2/51 10/3/51
f 31/1/52 22/2/52 32/3/52
f 22/1/53 5/2/53 32/3/53
f 29/1/54 30/2/54 9/3/54
f 29/1/55 21/2/55 30/3/55
f 21/1/56 4/2/56 30/3/56
f 27/1/57 28/2/57 8/3/57
f 27/1/58 19/2/58 28/3/58
f 19/1/59 3/2/59 28/3/59
f 25/1/60 26/2/60 7/3/60
f 25/1/61 15/2/61 26/3/61
f 15/1/62 2/2/62 26/3/62
f 23/1/63 24/2/63 11/3/63
f 23/1/64 16/2/64 24/3/64
f 16/1/65 6/2/65 24/3/65
f 17/1/66 22/2/66 6/3/66
f 17/1/67 20/2/67 22/3/67
f 20/1/68 5/2/68 22/3/68
f 20/1/69 21/2/69 5/3/69
f 20/1/70 18/2/70 21/3/70
f 18/1/71 4/2/71 21/3/71
f 18/1/72 19/2/72 4/3/72
f 18/1/73 13/2/73 19/3/73
f 13/1/74 3/2/74 19/3/74
f 16/1/75 17/2/75 6/3/75
f 16/1/76 14/2/76 17/3/76
f 14/1/77 1/2/77 17/3/77
f 13/1/78 15/2/78 3/3/78
f 13/1/79 14/2/79 15/3/79
f 14/1/80 2/2/80 15/3/80
